<svg version="1.1" id="Layer_1" xmlns="http://www.w3.org/2000/svg" xmlns:xlink="http://www.w3.org/1999/xlink" x="0px" y="0px"
	 width="100%" viewBox="307 109 410 326" enable-background="new 307 109 410 326" xml:space="preserve">
<path fill="#FFFFFF" opacity="1.000000" stroke="none" 
	d="
M593.654846,387.782410 
	C568.217102,399.684601 542.319824,395.336578 522.984680,375.975433 
	C502.266571,355.229492 481.723755,334.307922 460.925476,313.643158 
	C457.473907,310.213745 456.819519,308.037720 460.811127,304.542969 
	C466.314514,299.724701 471.403595,294.404480 476.402985,289.049835 
	C479.535004,285.695282 481.948364,285.285461 485.370911,288.810669 
	C496.973450,300.761475 508.820984,312.474274 520.562683,324.290161 
	C529.834229,333.620300 538.912476,343.150848 548.395752,352.260071 
	C559.135742,362.576263 574.112732,362.323944 584.659241,351.825714 
	C608.273010,328.320099 631.799316,304.726471 655.319702,281.127228 
	C660.993958,275.433899 660.882507,275.397125 655.255615,269.848572 
	C648.139221,262.831177 641.098450,255.737228 634.004761,248.696732 
	C632.846436,247.547043 631.583618,246.502609 630.248413,245.300903 
	C629.475281,245.866562 628.722290,246.127060 628.494324,246.626999 
	C623.512756,257.552979 614.561218,265.197052 606.352966,273.439636 
	C587.660217,292.210632 568.924622,310.939056 550.189819,329.668182 
	C545.478516,334.378113 545.445801,334.353302 540.750793,329.652466 
	C535.452820,324.347839 530.229797,318.965973 524.841248,313.755066 
	C522.102905,311.107086 522.115295,309.149780 524.925293,306.356506 
	C546.664734,284.746368 568.234070,262.965271 589.920044,241.301193 
	C594.528076,236.697830 598.063416,231.633484 598.697144,224.957657 
	C600.117126,210.000061 588.500427,202.132690 574.171082,200.398376 
	C564.417236,199.217850 555.274231,201.854034 547.106323,207.238480 
	C544.116516,209.209381 542.289490,208.958527 539.879822,206.421082 
	C534.145935,200.383179 528.195984,194.545013 522.203430,188.760757 
	C519.538086,186.188065 519.559753,184.273071 522.521851,181.922852 
	C551.585693,158.862534 595.888245,159.749557 621.978516,186.721359 
	C635.869690,201.081879 650.032471,215.182861 664.380676,229.102493 
	C678.716736,243.010376 692.424866,257.563934 706.523132,271.720001 
	C709.106750,274.314148 709.122375,275.954742 706.452820,278.607788 
	C679.758606,305.137024 653.199280,331.801910 626.592529,358.419220 
	C619.295471,365.719177 612.017578,373.039612 604.629272,380.246429 
	C601.520142,383.279083 597.926392,385.720184 593.654846,387.782410 
z"/>
<path fill="#FFFFFF" opacity="1.000000" stroke="none" 
	d="
M472.652100,229.670807 
	C473.586639,228.696213 474.351624,228.026810 474.939148,227.227066 
	C477.279633,224.041016 479.354401,224.085541 482.113251,227.045502 
	C487.562897,232.892334 493.124084,238.675232 499.069031,244.005112 
	C502.537170,247.114471 502.017883,248.948517 499.019440,251.918777 
	C477.240875,273.492615 455.644989,295.250732 433.901215,316.859863 
	C428.472229,322.255219 424.821747,328.259613 424.971497,336.187073 
	C425.096619,342.809692 427.710693,348.096100 432.988068,352.055756 
	C446.051819,361.857666 462.956848,362.393677 477.949799,353.055634 
	C481.472748,350.861359 483.614502,350.969635 486.478607,353.900696 
	C492.973511,360.547394 499.782349,366.887329 506.012482,372.915558 
	C505.391602,376.310303 503.531128,377.287140 501.989746,378.458313 
	C470.520630,402.368591 429.368561,399.061035 401.767731,370.875977 
	C375.083191,343.626556 348.018097,316.750031 321.152863,289.677246 
	C316.080139,284.565308 316.115845,284.459656 321.117828,279.492096 
	C353.738525,247.095917 386.337372,214.677567 419.020813,182.344788 
	C441.122314,160.480408 476.917786,159.521042 499.523712,181.031921 
	C521.480347,201.925034 542.511597,223.788986 564.056641,245.118103 
	C567.050476,248.081970 566.723022,250.107681 563.859253,252.839493 
	C557.835754,258.585297 551.994141,264.526855 546.206299,270.512238 
	C543.730530,273.072418 541.909485,272.655212 539.565918,270.264587 
	C527.438354,257.893555 515.176514,245.654343 502.992279,233.338745 
	C494.794708,225.052750 486.727631,216.636261 478.459351,208.421936 
	C467.268524,197.304077 452.851929,197.020462 441.592560,208.164261 
	C417.201782,232.304764 393.065552,256.702576 368.849976,281.019775 
	C367.385101,282.490814 365.082764,284.141418 367.433441,286.417419 
	C376.260651,294.963989 385.220367,303.373718 394.361664,312.054260 
	C393.955017,312.207611 394.419159,312.182312 394.539368,311.965942 
	C404.873169,293.363403 422.144928,281.030792 436.335022,265.935181 
	C447.966370,253.561600 460.350555,241.895691 472.652100,229.670807 
z"/>
</svg>
